#!OML:ASF E:\emotionWalksFemale\Project 1\Capture day 1\Session 1\Female1.ASF
:FULLY-SPECIFIED
:DEGREES
1657
root 9.00173 15.4173 8.41929 -2.90961 1.90507 364.403
lowerback 5.85983 -4.41431 -3.98359
upperback -5.77088 -6.22672 1.44614
thorax -8.80984 -2.73097 4.56217
lowerneck -2.9116 6.25906 3.83698
upperneck 1.89868 8.27421 -2.78
head 1.37498 4.12037 -1.32372
rclavicle 1.03368e-014 -2.06736e-014
rhumerus -73.4191 -33.1927 -7.27251
rradius 41.1151
rwrist -26.7725
rhand -11.1293 -65.2458
rfingers 7.12502
rthumb 14.8959 94.6902
lclavicle 1.03368e-014 -2.06736e-014
lhumerus -43.745 5.88261 84.3038
lradius 42.5827
lwrist -8.5265
lhand -7.15743 -40.8318
lfingers 7.12502
lthumb 18.7194 -11.7125
rfemur -18.5867 22.4398 14.9019
rtibia 20.6088
rfoot -19.5173 -36.268
rtoes 4.59146
lfemur 18.3486 -4.288 -29.9014
ltibia 22.589
lfoot -4.71502 8.08663
ltoes -21.9105
1658
root 8.95452 15.4292 8.59917 -2.90657 2.12457 364.041
lowerback 5.49971 -4.48113 -3.88308
upperback -5.92483 -6.28448 1.57705
thorax -8.75602 -2.76202 4.62537
lowerneck -2.46781 6.29957 3.93986
upperneck 2.03874 8.34577 -2.82618
head 1.35284 4.16057 -1.36555
rclavicle 2.48481e-014 2.14687e-014
rhumerus -73.2473 -32.9678 -6.99976
rradius 41.0862
rwrist -26.6206
rhand -11.134 -65.1793
rfingers 7.12502
rthumb 14.8914 94.6241
lclavicle 2.48481e-014 2.14687e-014
lhumerus -44.4915 5.34703 84.7131
lradius 42.4609
lwrist -8.44031
lhand -6.18345 -39.4165
lfingers 7.12502
lthumb 19.656 -10.3903
rfemur -17.7633 23.4156 15.5649
rtibia 20.3115
rfoot -19.5205 -36.9414
rtoes 5.65507
lfemur 17.7331 -3.59286 -28.8647
ltibia 24.5914
lfoot -3.2281 7.45515
ltoes -19.859
1659
root 8.91002 15.4349 8.77929 -2.95072 2.3357 363.664
lowerback 5.95413 -4.43293 -3.59814
upperback -6.3556 -6.21193 1.65904
thorax -9.52666 -2.70296 4.62489
lowerneck -2.39279 6.2447 3.99968
upperneck 2.54494 8.28315 -2.82047
head 1.50237 4.1323 -1.37037
rclavicle 8.46823e-014 9.54166e-015
rhumerus -73.082 -32.1174 -7.1727
rradius 41.2659
rwrist -26.8279
rhand -11.3674 -65.0801
rfingers 7.12502
rthumb 14.6665 94.5414
lclavicle 8.46823e-014 9.54166e-015
lhumerus -45.6313 4.66288 85.2104
lradius 42.4541
lwrist -8.39515
lhand -5.45356 -38.5232
lfingers 7.12502
lthumb 20.3576 -9.57026
rfemur -16.8 23.893 16.3774
rtibia 19.9352
rfoot -19.2345 -36.9943
rtoes 6.12433
lfemur 17.0398 -2.85909 -27.7747
ltibia 26.8058
lfoot -1.71363 6.85693
ltoes -16.6777
1660
root 8.86239 15.4439 8.95791 -3.0354 2.57424 363.276
lowerback 6.00652 -4.32783 -3.37471
upperback -6.42021 -6.05245 1.62451
thorax -9.67052 -2.63524 4.45588
lowerneck -2.68561 6.16016 4.35884
upperneck 2.85388 8.15112 -2.85212
head 1.66784 4.06818 -1.43153
rclavicle -6.61953e-014 -6.36111e-015
rhumerus -73.1199 -31.6125 -7.75423
rradius 41.6365
rwrist -27.2414
rhand -11.748 -65.0084
rfingers 7.12502
rthumb 14.2998 94.496
lclavicle -6.61953e-014 -6.36111e-015
lhumerus -46.351 3.6793 85.6681
lradius 42.7089
lwrist -8.15721
lhand -5.27914 -38.3975
lfingers 7.12502
lthumb 20.5252 -9.46253
rfemur -15.7627 23.6679 17.3678
rtibia 19.5563
rfoot -17.9225 -36.6356
rtoes 4.6037
lfemur 16.2162 -2.03375 -26.5814
ltibia 29.2437
lfoot -0.0498101 6.14111
ltoes -17.0398
1661
root 8.81386 15.4573 9.12793 -3.09868 2.79407 362.649
lowerback 5.87323 -4.21303 -2.99114
upperback -6.36344 -5.84591 1.68222
thorax -9.57735 -2.56394 4.26342
lowerneck -2.76364 6.05891 4.77815
upperneck 2.76336 7.9996 -3.02275
head 1.67599 3.99304 -1.56116
rclavicle -1.09332e-014 4.77083e-015
rhumerus -73.345 -31.7469 -7.65381
rradius 41.7732
rwrist -27.2692
rhand -12.1131 -64.8646
rfingers 7.12502
rthumb 13.948 94.3768
lclavicle -1.09332e-014 4.77083e-015
lhumerus -46.6974 2.70989 86.1657
lradius 42.7448
lwrist -8.02059
lhand -5.17211 -38.4018
lfingers 7.12502
lthumb 20.628 -9.47793
rfemur -14.847 23.3415 18.5939
rtibia 19.2479
rfoot -16.2987 -36.3137
rtoes 3.83504
lfemur 15.2415 -1.21789 -25.0903
ltibia 31.8534
lfoot 1.54082 5.36393
ltoes -18.9027
1662
root 8.77066 15.4671 9.29009 -3.16525 3.00055 361.933
lowerback 5.89584 -4.12953 -2.449
upperback -6.38438 -5.66324 1.83545
thorax -9.66434 -2.50332 4.10831
lowerneck -2.81872 6.00227 4.92611
upperneck 2.75238 7.92024 -3.16186
head 1.69335 3.95208 -1.63225
rclavicle 4.81059e-014 -1.51076e-014
rhumerus -73.3067 -31.8637 -7.51129
rradius 41.8373
rwrist -27.4297
rhand -12.175 -64.704
rfingers 7.12502
rthumb 13.8883 94.2203
lclavicle 4.81059e-014 -1.51076e-014
lhumerus -47.0534 1.91688 86.7303
lradius 42.6072
lwrist -8.00274
lhand -5.06486 -38.2674
lfingers 7.12502
lthumb 20.7311 -9.35475
rfemur -13.8742 22.6372 19.9195
rtibia 18.7997
rfoot -14.5728 -35.9285
rtoes 3.46157
lfemur 14.1561 -0.538398 -23.5779
ltibia 34.6135
lfoot 2.92966 4.70367
ltoes -19.7559
1663
root 8.74056 15.4726 9.44702 -3.23122 3.1888 361.255
lowerback 5.86026 -4.07004 -1.70681
upperback -6.30666 -5.49055 1.9726
thorax -9.62487 -2.46788 3.81412
lowerneck -3.33152 5.95182 4.79393
upperneck 3.00208 7.83668 -3.10643
head 1.85251 3.9063 -1.57651
rclavicle -3.24019e-014 1.59028e-015
rhumerus -73.1514 -32.3469 -7.20338
rradius 41.7607
rwrist -27.2315
rhand -11.7457 -64.5024
rfingers 7.12502
rthumb 14.3021 93.9899
lclavicle -3.24019e-014 1.59028e-015
lhumerus -47.3088 1.25953 87.3177
lradius 42.5487
lwrist -8.08361
lhand -5.13979 -38.0483
lfingers 7.12502
lthumb 20.6591 -9.12775
rfemur -12.7522 21.2234 21.1953
rtibia 18.0309
rfoot -12.8272 -35.1949
rtoes 2.76113
lfemur 12.985 -0.0667257 -22.2904
ltibia 37.5098
lfoot 4.23822 4.40912
ltoes -17.961
